<?xml version="1.0" encoding="UTF-8" standalone="no"?>
<!-- Created with Inkscape (http://www.inkscape.org/) -->

<svg
   xmlns:dc="http://purl.org/dc/elements/1.1/"
   xmlns:cc="http://creativecommons.org/ns#"
   xmlns:rdf="http://www.w3.org/1999/02/22-rdf-syntax-ns#"
   xmlns:svg="http://www.w3.org/2000/svg"
   xmlns="http://www.w3.org/2000/svg"
   xmlns:sodipodi="http://sodipodi.sourceforge.net/DTD/sodipodi-0.dtd"
   xmlns:inkscape="http://www.inkscape.org/namespaces/inkscape"
   width="180"
   height="180"
   viewBox="0 0 47.624999 47.625001"
   version="1.1"
   id="svg1297"
   inkscape:version="0.92.3 (2405546, 2018-03-11)"
   sodipodi:docname="treepons_logo_final.svg">
  <defs
     id="defs1291" />
  <sodipodi:namedview
     id="base"
     pagecolor="#ffffff"
     bordercolor="#666666"
     borderopacity="1.0"
     inkscape:pageopacity="0.0"
     inkscape:pageshadow="2"
     inkscape:zoom="1"
     inkscape:cx="55.462455"
     inkscape:cy="55.304316"
     inkscape:document-units="px"
     inkscape:current-layer="layer1"
     showgrid="false"
     units="px"
     inkscape:showpageshadow="false"
     fit-margin-top="0"
     fit-margin-left="0"
     fit-margin-right="0"
     fit-margin-bottom="0"
     inkscape:window-width="1366"
     inkscape:window-height="706"
     inkscape:window-x="-8"
     inkscape:window-y="-8"
     inkscape:window-maximized="1" />
  <metadata
     id="metadata1294">
    <rdf:RDF>
      <cc:Work
         rdf:about="">
        <dc:format>image/svg+xml</dc:format>
        <dc:type
           rdf:resource="http://purl.org/dc/dcmitype/StillImage" />
        <dc:title></dc:title>
      </cc:Work>
    </rdf:RDF>
  </metadata>
  <g
     inkscape:label="Layer 1"
     inkscape:groupmode="layer"
     id="layer1"
     transform="translate(-71.059525,-124.26487)">
    <path
       inkscape:connector-curvature="0"
       style="color:#000000;font-style:normal;font-variant:normal;font-weight:normal;font-stretch:normal;font-size:medium;line-height:normal;font-family:sans-serif;font-variant-ligatures:normal;font-variant-position:normal;font-variant-caps:normal;font-variant-numeric:normal;font-variant-alternates:normal;font-feature-settings:normal;text-indent:0;text-align:start;text-decoration:none;text-decoration-line:none;text-decoration-style:solid;text-decoration-color:#000000;letter-spacing:normal;word-spacing:normal;text-transform:none;writing-mode:lr-tb;direction:ltr;text-orientation:mixed;dominant-baseline:auto;baseline-shift:baseline;text-anchor:start;white-space:normal;shape-padding:0;clip-rule:nonzero;display:inline;overflow:visible;visibility:visible;opacity:1;isolation:auto;mix-blend-mode:normal;color-interpolation:sRGB;color-interpolation-filters:linearRGB;solid-color:#000000;solid-opacity:1;vector-effect:none;fill:#333333;fill-opacity:1;fill-rule:nonzero;stroke:none;stroke-width:3.87235928;stroke-linecap:round;stroke-linejoin:miter;stroke-miterlimit:4;stroke-dasharray:none;stroke-dashoffset:0;stroke-opacity:1;color-rendering:auto;image-rendering:auto;shape-rendering:auto;text-rendering:auto;enable-background:accumulate"
       d="m 86.074813,124.92666 c -7.919007,0 -14.353851,6.4328 -14.353851,14.34748 v 17.58113 c 0,7.91472 6.434844,14.3475 14.353851,14.3475 h 8.481175 a 1.9369047,1.9358416 0 0 0 1.506497,-0.3846 1.9370268,1.9359638 0 0 0 0.745937,-1.91046 v -7.09184 l 3.999518,2.30919 a 1.9369049,1.9358419 0 1 0 1.9367,-3.3526 l -5.936218,-3.4262 v -6.79645 a 1.9369047,1.9358416 0 0 0 0,-0.61497 v -4.54274 l 3.999518,2.30867 a 1.9369145,1.9358515 0 0 0 1.9367,-3.3531 l -6.638785,-3.83197 a 1.9369047,1.9358416 0 0 0 -0.299075,-0.19759 1.9369047,1.9358416 0 0 0 -0.06912,-0.0362 1.9369047,1.9358416 0 0 0 -0.05697,-0.0261 1.9369047,1.9358416 0 0 0 -0.838746,-0.17945 1.9369047,1.9358416 0 0 0 -5.05e-4,0 1.9369047,1.9358416 0 0 0 -0.856897,0.21726 1.9369047,1.9358416 0 0 0 -0.131629,0.0741 1.9369047,1.9358416 0 0 0 -0.07166,0.0459 1.9369047,1.9358416 0 0 0 -0.05241,0.0362 1.9369047,1.9358416 0 0 0 -0.08216,0.06 l -6.649369,3.83751 a 1.9369147,1.9358517 0 0 0 1.936705,3.35311 l 4.001024,-2.30914 v 3.74225 l -5.937723,3.42517 a 1.9369147,1.9358517 0 1 0 1.936705,3.3531 l 4.001018,-2.30814 v 3.74174 l -5.937723,3.42672 a 1.9369049,1.9358419 0 1 0 1.936705,3.35259 l 4.001018,-2.30919 v 5.5156 h -6.860181 c -5.839993,0 -10.480438,-4.63936 -10.480438,-10.4762 v -17.58113 c 0,-5.83681 4.640445,-10.4762 10.480438,-10.4762 h 17.592298 c 5.84004,0 10.48245,4.63936 10.48245,10.4762 v 17.58113 c 0,0.19989 -0.007,0.39401 -0.0172,0.5827 a 1.9370268,1.9359638 0 1 0 3.86738,0.21928 c 0.0152,-0.26957 0.0233,-0.53709 0.0233,-0.80198 v -17.58113 c 0,-7.91469 -6.43681,-14.34749 -14.35586,-14.34749 z m 14.656967,26.72908 a 1.9369047,1.9358416 0 0 0 -1.018297,3.62382 l 1.094457,0.63259 a 1.9369165,1.9358535 0 0 0 1.9367,-3.35312 l -1.09445,-0.63056 a 1.9369047,1.9358416 0 0 0 -0.91841,-0.27273 z m 8.26885,10.21911 a 1.936711,1.9356482 0 0 0 -1.93672,1.93566 1.936711,1.9356482 0 0 0 1.93672,1.93563 1.936711,1.9356482 0 0 0 1.93671,-1.93563 1.936711,1.9356482 0 0 0 -1.93671,-1.93566 z m 7.08512,0 a 1.936711,1.9356482 0 0 0 -1.9367,1.93566 1.936711,1.9356482 0 0 0 1.9367,1.93563 1.936711,1.9356482 0 0 0 1.93673,-1.93563 1.936711,1.9356482 0 0 0 -1.93673,-1.93566 z m -14.17026,5.45661 a 1.936711,1.9356482 0 0 0 -1.936717,1.93566 1.936711,1.9356482 0 0 0 1.936717,1.93565 1.936711,1.9356482 0 0 0 1.93671,-1.93565 1.936711,1.9356482 0 0 0 -1.93671,-1.93566 z m 7.08514,0 a 1.936711,1.9356482 0 0 0 -1.93672,1.93566 1.936711,1.9356482 0 0 0 1.93672,1.93565 1.936711,1.9356482 0 0 0 1.93671,-1.93565 1.936711,1.9356482 0 0 0 -1.93671,-1.93566 z"
       id="path1198" />
  </g>
</svg>
